<svg
  version="1"
  xmlns="http://www.w3.org/2000/svg"
  width="300"
  height="300"
  viewBox="0 0 300 300"
>
  <g
    stroke-width="10"
    stroke-linecap="round"
    stroke="gray"
    fill="none"
  >
    <path
      d="M0 200 L200 200"
    />
    <path
      d="M100 200 L200 100"
    />
    <path
      d="M100 100 L300 100"
    />
    <path
      d="M100 100 L200 200"
    />
    <path
      stroke="black"
      d="M0 100 L100 100 L200 200 L300 200"
    />
  </g>
  <g fill="black">
    <rect x="30" y="110" width="40" height="80" rx="5" ry="5" />
    <rect x="230" y="110" width="40" height="80" rx="5" ry="5" />
  </g>
  <g stroke-width="0">
    <circle cx="50" cy="125" r="10" fill="red" />
    <circle cx="50" cy="150" r="10" fill="yellow" />
    <circle cx="50" cy="175" r="10" fill="green" />

    <circle cx="250" cy="125" r="10" fill="red" />
    <circle cx="250" cy="150" r="10" fill="yellow" />
    <circle cx="250" cy="175" r="10" fill="green" />
  </g>
  <path
    stroke="blue"
    stroke-width="8"
    d="M25 90 L75 90"
  />
</svg>
