<?xml version="1.0" standalone="no"?>
<!DOCTYPE svg PUBLIC "-//W3C//DTD SVG 20010904//EN"
 "http://www.w3.org/TR/2001/REC-SVG-20010904/DTD/svg10.dtd">
<svg version="1.0" xmlns="http://www.w3.org/2000/svg"
 width="700.000000pt" height="700.000000pt" viewBox="0 0 700.000000 700.000000"
 preserveAspectRatio="xMidYMid meet">
<metadata>
Created by potrace 1.11, written by Peter Selinger 2001-2013
</metadata>
<g transform="translate(0.000000,700.000000) scale(0.100000,-0.100000)"
fill="#000000" stroke="none">
<path d="M580 4900 l0 -90 585 0 585 0 0 90 0 90 -585 0 -585 0 0 -90z"/>
<path d="M0 4665 l0 -115 1143 0 1143 0 1162 -1165 1163 -1165 1194 0 1195 0
0 115 0 115 -1143 0 -1143 0 -1162 1165 -1163 1165 -1194 0 -1195 0 0 -115z"/>
<path d="M754 4411 c-17 -11 -36 -34 -43 -52 -8 -23 -11 -270 -11 -861 0 -908
-2 -881 59 -912 26 -14 85 -16 417 -16 l386 0 34 34 34 34 0 862 0 862 -34 34
-34 34 -389 0 c-364 0 -390 -1 -419 -19z m486 -691 c84 -23 160 -128 160 -220
0 -92 -76 -197 -160 -220 -174 -49 -331 91 -299 265 25 133 162 213 299 175z"/>
<path d="M5404 4396 l-34 -34 0 -862 0 -862 34 -34 34 -34 386 0 c430 0 435 1
462 65 21 51 21 1679 0 1730 -27 64 -32 65 -462 65 l-386 0 -34 -34z m534
-692 c62 -31 108 -92 121 -159 32 -174 -125 -314 -299 -265 -84 23 -160 128
-160 220 0 89 76 196 155 219 60 18 128 12 183 -15z"/>
</g>
</svg>
